<svg data-v-fde0c5aa="" xmlns="http://www.w3.org/2000/svg" viewBox="0 0 300 300" class="iconAbove"><!----><defs data-v-fde0c5aa=""><!----></defs><rect data-v-fde0c5aa="" fill="transparent" x="0" y="0" width="300px" height="300px" class="logo-background-square"></rect><defs data-v-fde0c5aa=""><!----></defs><g data-v-fde0c5aa="" id="83b64237-cb37-4818-9ea4-aec13f43f0f9" fill="#7D7D7D" transform="matrix(3.7249282039028837,0,0,3.7249282039028837,18.957020098466703,168.83380996097202)"><path d="M0.28 3.72L0.28 3.72L0.28 3.72Q0.28 3.50 0.60 3.50L0.60 3.50L0.60 3.50Q0.64 3.50 0.76 3.49L0.76 3.49L0.76 3.49Q0.87 3.49 1.12 3.49L1.12 3.49L1.12 3.49Q1.19 3.49 1.51 3.51L1.51 3.51L1.51 3.51Q1.82 3.53 1.96 3.53L1.96 3.53L1.96 3.53Q2.27 3.53 3.15 3.51L3.15 3.51L3.15 3.51Q4.03 3.49 4.27 3.49L4.27 3.49L4.27 3.49Q5.59 3.49 6.54 4.15L6.54 4.15L6.54 4.15Q7.49 4.82 7.49 6.06L7.49 6.06L7.49 6.06Q7.49 6.75 7.24 7.29L7.24 7.29L7.24 7.29Q6.99 7.83 6.63 8.13L6.63 8.13L6.63 8.13Q6.27 8.44 5.83 8.64L5.83 8.64L5.83 8.64Q5.39 8.85 5.05 8.91L5.05 8.91L5.05 8.91Q4.70 8.97 4.44 8.97L4.44 8.97L4.44 8.97Q3.99 8.97 3.53 8.87L3.53 8.87L3.53 8.87Q3.07 8.76 3.07 8.65L3.07 8.65L3.07 8.65Q3.07 8.44 3.25 8.44L3.25 8.44L3.25 8.44Q3.32 8.44 3.54 8.50L3.54 8.50L3.54 8.50Q3.75 8.55 3.96 8.55L3.96 8.55L3.96 8.55Q4.28 8.55 4.65 8.46L4.65 8.46L4.65 8.46Q5.01 8.37 5.40 8.17L5.40 8.17L5.40 8.17Q5.80 7.97 6.05 7.55L6.05 7.55L6.05 7.55Q6.30 7.14 6.30 6.59L6.30 6.59L6.30 6.59Q6.30 5.66 5.54 4.85L5.54 4.85L5.54 4.85Q4.79 4.05 3.46 4.05L3.46 4.05L3.46 4.05Q3.02 4.05 2.87 4.30L2.87 4.30L2.87 4.30Q2.72 4.56 2.72 5.47L2.72 5.47L2.72 5.47Q2.72 8.39 2.70 8.80L2.70 8.80L2.70 8.80Q2.69 9.21 2.69 11.26L2.69 11.26L2.69 11.26Q2.69 12.49 3.26 12.87L3.26 12.87L3.26 12.87Q3.42 12.96 3.65 12.99L3.65 12.99L3.65 12.99Q3.88 13.02 4.03 13.01L4.03 13.01L4.03 13.01Q4.19 13.01 4.30 13.07L4.30 13.07L4.30 13.07Q4.42 13.13 4.42 13.30L4.42 13.30L4.42 13.30Q4.42 13.54 4.10 13.54L4.10 13.54L4.10 13.54Q3.78 13.54 2.97 13.50L2.97 13.50L2.97 13.50Q2.16 13.47 2.10 13.47L2.10 13.47L2.10 13.47Q1.96 13.47 1.55 13.50L1.55 13.50L1.55 13.50Q1.13 13.52 0.80 13.52L0.80 13.52L0.80 13.52Q0.36 13.52 0.36 13.37L0.36 13.37L0.36 13.37Q0.36 13.29 0.39 13.23L0.39 13.23L0.39 13.23Q0.41 13.17 0.43 13.14L0.43 13.14L0.43 13.14Q0.45 13.10 0.52 13.08L0.52 13.08L0.52 13.08Q0.59 13.05 0.62 13.03L0.62 13.03L0.62 13.03Q0.64 13.02 0.75 13.00L0.75 13.00L0.75 13.00Q0.85 12.98 0.90 12.96L0.90 12.96L0.90 12.96Q0.92 12.95 0.98 12.94L0.98 12.94L0.98 12.94Q1.04 12.94 1.06 12.93L1.06 12.93L1.06 12.93Q1.08 12.92 1.13 12.89L1.13 12.89L1.13 12.89Q1.18 12.85 1.20 12.79L1.20 12.79L1.20 12.79Q1.23 12.73 1.28 12.62L1.28 12.62L1.28 12.62Q1.33 12.52 1.39 12.35L1.39 12.35L1.39 12.35Q1.48 12.08 1.54 10.25L1.54 10.25L1.54 10.25Q1.60 8.41 1.60 7.41L1.60 7.41L1.60 7.41Q1.60 6.54 1.59 5.80L1.59 5.80L1.59 5.80Q1.58 5.07 1.58 5.03L1.58 5.03L1.58 5.03Q1.58 4.65 1.34 4.28L1.34 4.28L1.34 4.28Q1.11 3.91 0.56 3.91L0.56 3.91L0.56 3.91Q0.28 3.91 0.28 3.72ZM8.18 3.74L8.18 3.74L8.18 3.74Q8.18 3.65 8.20 3.61L8.20 3.61L8.20 3.61Q8.22 3.57 8.29 3.54L8.29 3.54L8.29 3.54Q8.36 3.50 8.45 3.48L8.45 3.48L8.45 3.48Q8.54 3.46 8.74 3.39L8.74 3.39L8.74 3.39Q8.93 3.33 9.13 3.25L9.13 3.25L9.13 3.25Q9.24 3.21 9.48 3.09L9.48 3.09L9.48 3.09Q9.72 2.98 9.89 2.92L9.89 2.92L9.89 2.92Q10.07 2.86 10.19 2.86L10.19 2.86L10.19 2.86Q10.36 2.86 10.36 3.12L10.36 3.12L10.36 3.12Q10.36 3.18 10.33 3.45L10.33 3.45L10.33 3.45Q10.30 3.72 10.28 4.21L10.28 4.21L10.28 4.21Q10.25 4.69 10.25 5.25L10.25 5.25L10.25 6.03L10.25 6.03Q10.25 6.69 10.23 7.15L10.23 7.15L10.23 7.15Q10.22 7.60 10.22 7.90L10.22 7.90L10.22 12.07L10.22 12.07Q10.22 12.36 10.27 12.55L10.27 12.55L10.27 12.55Q10.32 12.74 10.59 12.91L10.59 12.91L10.59 12.91Q10.86 13.09 11.35 13.09L11.35 13.09L11.35 13.09Q11.42 13.09 11.48 13.16L11.48 13.16L11.48 13.16Q11.54 13.23 11.54 13.30L11.54 13.30L11.54 13.30Q11.54 13.50 11.10 13.50L11.10 13.50L11.10 13.50Q10.98 13.50 10.45 13.45L10.45 13.45L10.45 13.45Q9.93 13.40 9.69 13.40L9.69 13.40L9.69 13.40Q9.32 13.40 8.99 13.45L8.99 13.45L8.99 13.45Q8.67 13.51 8.55 13.51L8.55 13.51L8.55 13.51Q8.46 13.51 8.39 13.46L8.39 13.46L8.39 13.46Q8.33 13.41 8.33 13.37L8.33 13.37L8.33 13.37Q8.33 13.26 8.39 13.21L8.39 13.21L8.39 13.21Q8.46 13.16 8.60 13.13L8.60 13.13L8.60 13.13Q8.75 13.09 8.81 13.06L8.81 13.06L8.81 13.06Q9.04 12.95 9.11 12.75L9.11 12.75L9.11 12.75Q9.18 12.56 9.18 12.15L9.18 12.15L9.18 12.15Q9.18 12.10 9.18 11.98L9.18 11.98L9.18 11.98Q9.17 11.86 9.17 11.79L9.17 11.79L9.17 10.75L9.17 10.75Q9.17 10.23 9.20 8.00L9.20 8.00L9.20 8.00Q9.23 5.77 9.23 4.80L9.23 4.80L9.23 4.80Q9.23 4.48 9.12 4.22L9.12 4.22L9.12 4.22Q9.02 3.96 8.89 3.91L8.89 3.91L8.89 3.91Q8.76 3.85 8.33 3.85L8.33 3.85L8.33 3.85Q8.18 3.85 8.18 3.74ZM12.47 12.25L12.47 12.25L12.47 12.25Q12.47 11.75 12.68 11.40L12.68 11.40L12.68 11.40Q12.89 11.06 13.32 10.87L13.32 10.87L13.32 10.87Q13.75 10.68 14.21 10.57L14.21 10.57L14.21 10.57Q14.67 10.46 15.33 10.35L15.33 10.35L15.33 10.35Q15.41 10.33 15.46 10.32L15.46 10.32L15.46 10.32Q15.50 10.32 15.57 10.31L15.57 10.31L15.57 10.31Q15.64 10.30 15.69 10.29L15.69 10.29L15.69 10.29Q15.79 10.28 15.83 10.26L15.83 10.26L15.83 10.26Q15.86 10.25 15.90 10.20L15.90 10.20L15.90 10.20Q15.93 10.15 15.93 10.07L15.93 10.07L15.93 10.07Q15.93 9.93 15.95 9.68L15.95 9.68L15.95 9.68Q15.96 9.44 15.96 9.34L15.96 9.34L15.96 9.34Q15.96 8.54 15.50 8.18L15.50 8.18L15.50 8.18Q15.04 7.83 14.60 7.83L14.60 7.83L14.60 7.83Q13.59 7.83 13.59 8.67L13.59 8.67L13.59 8.67Q13.59 8.78 13.62 8.95L13.62 8.95L13.62 8.95Q13.65 9.11 13.65 9.17L13.65 9.17L13.65 9.17Q13.65 9.45 13.40 9.45L13.40 9.45L13.40 9.45Q13.31 9.45 13.19 9.43L13.19 9.43L13.19 9.43Q13.06 9.41 12.90 9.36L12.90 9.36L12.90 9.36Q12.74 9.31 12.63 9.19L12.63 9.19L12.63 9.19Q12.53 9.07 12.53 8.90L12.53 8.90L12.53 8.90Q12.53 8.36 13.27 7.86L13.27 7.86L13.27 7.86Q14 7.36 14.88 7.36L14.88 7.36L14.88 7.36Q15.48 7.36 15.90 7.50L15.90 7.50L15.90 7.50Q16.32 7.64 16.53 7.82L16.53 7.82L16.53 7.82Q16.73 7.99 16.84 8.28L16.84 8.28L16.84 8.28Q16.95 8.57 16.97 8.73L16.97 8.73L16.97 8.73Q16.98 8.89 16.98 9.13L16.98 9.13L16.98 9.13Q16.98 10.14 16.95 10.72L16.95 10.72L16.95 10.72Q16.91 11.30 16.91 11.73L16.91 11.73L16.91 11.73Q16.91 12.25 17.02 12.55L17.02 12.55L17.02 12.55Q17.14 12.85 17.29 12.94L17.29 12.94L17.29 12.94Q17.44 13.02 17.60 13.03L17.60 13.03L17.60 13.03Q17.75 13.05 17.86 13.09L17.86 13.09L17.86 13.09Q17.98 13.13 17.98 13.26L17.98 13.26L17.98 13.26Q17.98 13.55 17.09 13.55L17.09 13.55L17.09 13.55Q16.73 13.55 16.47 13.36L16.47 13.36L16.47 13.36Q16.21 13.16 16.10 12.97L16.10 12.97L16.10 12.97Q15.99 12.78 15.97 12.78L15.97 12.78L15.97 12.78Q15.96 12.78 15.86 12.87L15.86 12.87L15.86 12.87Q15.76 12.96 15.59 13.09L15.59 13.09L15.59 13.09Q15.41 13.22 15.20 13.34L15.20 13.34L15.20 13.34Q14.98 13.47 14.69 13.56L14.69 13.56L14.69 13.56Q14.41 13.65 14.13 13.65L14.13 13.65L14.13 13.65Q13.23 13.65 12.82 13.23L12.82 13.23L12.82 13.23Q12.47 12.88 12.47 12.25ZM13.57 12.04L13.57 12.04L13.57 12.04Q13.57 12.52 13.85 12.80L13.85 12.80L13.85 12.80Q14.13 13.09 14.64 13.09L14.64 13.09L14.64 13.09Q15.01 13.09 15.27 12.98L15.27 12.98L15.27 12.98Q15.53 12.87 15.65 12.73L15.65 12.73L15.65 12.73Q15.78 12.59 15.85 12.36L15.85 12.36L15.85 12.36Q15.92 12.12 15.93 12.00L15.93 12.00L15.93 12.00Q15.93 11.87 15.93 11.66L15.93 11.66L15.93 10.65L15.93 10.65Q15.93 10.53 15.83 10.53L15.83 10.53L15.83 10.53Q15.81 10.53 15.76 10.54L15.76 10.54L15.76 10.54Q15.72 10.56 15.69 10.56L15.69 10.56L15.69 10.56Q15.37 10.61 15.29 10.63L15.29 10.63L15.29 10.63Q15.20 10.64 14.90 10.71L14.90 10.71L14.90 10.71Q14.59 10.78 14.47 10.84L14.47 10.84L14.47 10.84Q14.35 10.89 14.13 11.01L14.13 11.01L14.13 11.01Q13.92 11.13 13.82 11.26L13.82 11.26L13.82 11.26Q13.73 11.40 13.65 11.60L13.65 11.60L13.65 11.60Q13.57 11.80 13.57 12.04ZM18.61 10.75L18.61 10.75L18.61 10.75Q18.61 9.41 19.51 8.42L19.51 8.42L19.51 8.42Q20.41 7.43 21.85 7.43L21.85 7.43L21.85 7.43Q22.34 7.43 22.91 7.57L22.91 7.57L22.91 7.57Q23.48 7.71 23.49 7.90L23.49 7.90L23.49 7.90Q23.52 8.23 23.52 8.55L23.52 8.55L23.52 8.55Q23.52 9.17 23.37 9.17L23.37 9.17L23.37 9.17Q23.28 9.17 23.22 9.11L23.22 9.11L23.22 9.11Q23.16 9.04 23.08 8.92L23.08 8.92L23.08 8.92Q23.00 8.79 22.90 8.72L22.90 8.72L22.90 8.72Q22.60 8.46 22.07 8.22L22.07 8.22L22.07 8.22Q21.55 7.98 21.04 7.98L21.04 7.98L21.04 7.98Q20.94 7.98 20.79 8.03L20.79 8.03L20.79 8.03Q20.64 8.08 20.43 8.24L20.43 8.24L20.43 8.24Q20.23 8.40 20.06 8.64L20.06 8.64L20.06 8.64Q19.89 8.89 19.77 9.32L19.77 9.32L19.77 9.32Q19.66 9.76 19.66 10.30L19.66 10.30L19.66 10.30Q19.66 11.40 20.35 12.20L20.35 12.20L20.35 12.20Q21.04 13.01 22.05 13.01L22.05 13.01L22.05 13.01Q22.54 13.01 22.96 12.82L22.96 12.82L22.96 12.82Q23.38 12.64 23.61 12.46L23.61 12.46L23.61 12.46Q23.84 12.28 23.90 12.28L23.90 12.28L23.90 12.28Q24.05 12.28 24.05 12.42L24.05 12.42L24.05 12.42Q24.05 12.46 23.96 12.60L23.96 12.60L23.96 12.60Q23.87 12.74 23.67 12.94L23.67 12.94L23.67 12.94Q23.46 13.13 23.18 13.31L23.18 13.31L23.18 13.31Q22.90 13.48 22.46 13.61L22.46 13.61L22.46 13.61Q22.01 13.73 21.50 13.73L21.50 13.73L21.50 13.73Q20.19 13.73 19.40 12.94L19.40 12.94L19.40 12.94Q18.61 12.14 18.61 10.75ZM24.93 10.72L24.93 10.72L24.93 10.72Q24.93 9.32 25.72 8.36L25.72 8.36L25.72 8.36Q26.52 7.39 27.78 7.39L27.78 7.39L27.78 7.39Q28.36 7.39 28.85 7.60L28.85 7.60L28.85 7.60Q29.33 7.81 29.60 8.11L29.60 8.11L29.60 8.11Q29.86 8.41 30.04 8.75L30.04 8.75L30.04 8.75Q30.23 9.09 30.29 9.30L30.29 9.30L30.29 9.30Q30.35 9.52 30.35 9.62L30.35 9.62L30.35 9.62Q30.35 9.87 29.78 9.87L29.78 9.87L26.60 9.87L26.18 9.87L26.18 9.87Q26.07 9.87 26.05 9.89L26.05 9.89L26.05 9.89Q26.03 9.91 26.03 10.02L26.03 10.02L26.03 10.02Q26.03 11.34 26.73 12.10L26.73 12.10L26.73 12.10Q27.44 12.85 28.39 12.85L28.39 12.85L28.39 12.85Q28.98 12.85 29.59 12.54L29.59 12.54L29.59 12.54Q30.20 12.22 30.23 12.22L30.23 12.22L30.23 12.22Q30.37 12.22 30.37 12.35L30.37 12.35L30.37 12.35Q30.37 12.40 30.27 12.55L30.27 12.55L30.27 12.55Q30.17 12.70 29.96 12.89L29.96 12.89L29.96 12.89Q29.75 13.09 29.47 13.27L29.47 13.27L29.47 13.27Q29.19 13.45 28.77 13.58L28.77 13.58L28.77 13.58Q28.35 13.71 27.89 13.71L27.89 13.71L27.89 13.71Q26.66 13.71 25.79 12.95L25.79 12.95L25.79 12.95Q24.93 12.19 24.93 10.72ZM26.11 9.34L26.11 9.34L26.11 9.34Q26.11 9.53 26.29 9.53L26.29 9.53L26.29 9.53Q26.67 9.53 27.68 9.49L27.68 9.49L27.68 9.49Q28.69 9.45 28.76 9.45L28.76 9.45L28.76 9.45Q28.95 9.45 29.00 9.41L29.00 9.41L29.00 9.41Q29.05 9.38 29.05 9.28L29.05 9.28L29.05 9.28Q29.05 8.86 28.66 8.30L28.66 8.30L28.66 8.30Q28.27 7.74 27.54 7.74L27.54 7.74L27.54 7.74Q26.87 7.74 26.49 8.29L26.49 8.29L26.49 8.29Q26.11 8.85 26.11 9.34ZM31.68 12.84L31.68 12.84L31.68 11.62L31.68 11.62Q31.68 11.47 31.74 11.36L31.74 11.36L31.74 11.36Q31.81 11.26 31.89 11.26L31.89 11.26L31.89 11.26Q32.03 11.26 32.08 11.32L32.08 11.32L32.08 11.32Q32.13 11.38 32.17 11.58L32.17 11.58L32.17 11.58Q32.21 11.77 32.26 11.86L32.26 11.86L32.26 11.86Q32.77 13.15 33.71 13.15L33.71 13.15L33.71 13.15Q34.15 13.15 34.54 12.91L34.54 12.91L34.54 12.91Q34.93 12.68 34.93 12.15L34.93 12.15L34.93 12.15Q34.93 11.69 34.61 11.38L34.61 11.38L34.61 11.38Q34.29 11.07 33.82 10.90L33.82 10.90L33.82 10.90Q33.36 10.72 32.90 10.54L32.90 10.54L32.90 10.54Q32.44 10.35 32.12 9.97L32.12 9.97L32.12 9.97Q31.79 9.60 31.79 9.04L31.79 9.04L31.79 9.04Q31.79 8.26 32.42 7.78L32.42 7.78L32.42 7.78Q33.05 7.31 33.91 7.31L33.91 7.31L33.91 7.31Q34.57 7.31 34.96 7.43L34.96 7.43L34.96 7.43Q35.35 7.55 35.43 7.64L35.43 7.64L35.43 7.64Q35.50 7.74 35.50 7.83L35.50 7.83L35.50 7.83Q35.50 7.84 35.53 8.20L35.53 8.20L35.53 8.20Q35.56 8.57 35.56 8.67L35.56 8.67L35.56 8.67Q35.56 8.90 35.50 8.99L35.50 8.99L35.50 8.99Q35.45 9.07 35.31 9.07L35.31 9.07L35.31 9.07Q35.24 9.07 35.12 8.87L35.12 8.87L35.12 8.87Q35 8.67 34.85 8.43L34.85 8.43L34.85 8.43Q34.71 8.19 34.38 7.99L34.38 7.99L34.38 7.99Q34.05 7.78 33.61 7.78L33.61 7.78L33.61 7.78Q33.21 7.78 32.94 7.99L32.94 7.99L32.94 7.99Q32.68 8.19 32.68 8.50L32.68 8.50L32.68 8.50Q32.68 8.67 32.72 8.81L32.72 8.81L32.72 8.81Q32.76 8.96 32.87 9.07L32.87 9.07L32.87 9.07Q32.97 9.18 33.05 9.26L33.05 9.26L33.05 9.26Q33.12 9.34 33.31 9.42L33.31 9.42L33.31 9.42Q33.49 9.51 33.58 9.54L33.58 9.54L33.58 9.54Q33.67 9.58 33.89 9.65L33.89 9.65L33.89 9.65Q34.10 9.73 34.17 9.76L34.17 9.76L34.17 9.76Q35.18 10.14 35.53 10.55L35.53 10.55L35.53 10.55Q35.88 10.96 35.88 11.77L35.88 11.77L35.88 11.77Q35.88 12.56 35.14 13.23L35.14 13.23L35.14 13.23Q34.64 13.66 33.75 13.66L33.75 13.66L33.75 13.66Q33.50 13.66 33.22 13.61L33.22 13.61L33.22 13.61Q32.94 13.55 32.78 13.50L32.78 13.50L32.78 13.50Q32.62 13.45 32.41 13.37L32.41 13.37L32.41 13.37Q32.20 13.29 32.19 13.29L32.19 13.29L32.19 13.29Q32.13 13.27 32.05 13.24L32.05 13.24L32.05 13.24Q31.98 13.22 31.94 13.21L31.94 13.21L31.94 13.21Q31.91 13.20 31.85 13.17L31.85 13.17L31.85 13.17Q31.79 13.15 31.77 13.13L31.77 13.13L31.77 13.13Q31.75 13.10 31.72 13.06L31.72 13.06L31.72 13.06Q31.70 13.02 31.69 12.96L31.69 12.96L31.69 12.96Q31.68 12.91 31.68 12.84ZM36.82 13.33L36.82 13.33L36.82 13.33Q36.82 13.24 36.90 13.19L36.90 13.19L36.90 13.19Q36.97 13.13 37.21 13.03L37.21 13.03L37.21 13.03Q37.45 12.94 37.66 12.81L37.66 12.81L37.66 12.81Q39.23 11.87 39.96 10.95L39.96 10.95L39.96 10.95Q40.68 10.02 40.68 9.28L40.68 9.28L40.68 9.28Q40.68 8.68 40.22 8.32L40.22 8.32L40.22 8.32Q39.75 7.95 39.28 7.95L39.28 7.95L39.28 7.95Q38.46 7.95 38.46 8.60L38.46 8.60L38.46 8.60Q38.46 8.75 38.57 9.04L38.57 9.04L38.57 9.04Q38.68 9.34 38.68 9.42L38.68 9.42L38.68 9.42Q38.68 9.56 38.50 9.56L38.50 9.56L38.50 9.56Q38.15 9.56 37.84 9.40L37.84 9.40L37.84 9.40Q37.52 9.24 37.52 9.06L37.52 9.06L37.52 9.06Q37.52 8.89 37.63 8.65L37.63 8.65L37.63 8.65Q37.74 8.41 37.98 8.14L37.98 8.14L37.98 8.14Q38.22 7.87 38.72 7.69L38.72 7.69L38.72 7.69Q39.23 7.50 39.90 7.50L39.90 7.50L39.90 7.50Q40.73 7.50 41.25 7.90L41.25 7.90L41.25 7.90Q41.78 8.29 41.78 9.02L41.78 9.02L41.78 9.02Q41.78 9.62 41.22 10.33L41.22 10.33L41.22 10.33Q40.67 11.05 39.97 11.62L39.97 11.62L39.97 11.62Q39.12 12.32 39.12 12.43L39.12 12.43L39.12 12.43Q39.12 12.54 39.76 12.54L39.76 12.54L39.76 12.54Q41.16 12.54 41.75 12.36L41.75 12.36L41.75 12.36Q41.97 12.29 42.22 11.98L42.22 11.98L42.22 11.98Q42.46 11.66 42.52 11.66L42.52 11.66L42.52 11.66Q42.69 11.66 42.69 11.82L42.69 11.82L42.69 11.82Q42.69 11.86 42.34 12.52L42.34 12.52L42.34 12.52Q41.99 13.19 41.94 13.24L41.94 13.24L41.94 13.24Q41.73 13.48 41.65 13.50L41.65 13.50L41.65 13.50Q41.59 13.50 41.43 13.49L41.43 13.49L41.43 13.49Q41.26 13.48 40.68 13.47L40.68 13.47L40.68 13.47Q40.11 13.45 39.12 13.45L39.12 13.45L39.12 13.45Q38.21 13.45 37.72 13.46L37.72 13.46L37.72 13.46Q37.24 13.47 37.20 13.47L37.20 13.47L37.20 13.47Q36.82 13.47 36.82 13.33ZM41.94 3.70L41.94 3.70L41.94 3.70Q41.94 3.50 42.34 3.50L42.34 3.50L42.34 3.50Q42.41 3.50 42.88 3.53L42.88 3.53L42.88 3.53Q43.34 3.56 43.88 3.56L43.88 3.56L43.88 3.56Q44.00 3.56 44.32 3.54L44.32 3.54L44.32 3.54Q44.63 3.53 44.79 3.53L44.79 3.53L44.79 3.53Q45.11 3.53 45.18 3.56L45.18 3.56L45.18 3.56Q45.25 3.58 45.25 3.68L45.25 3.68L45.25 3.68Q45.25 3.77 45.11 3.84L45.11 3.84L45.11 3.84Q44.97 3.91 44.82 4.02L44.82 4.02L44.82 4.02Q44.67 4.14 44.67 4.34L44.67 4.34L44.67 4.34Q44.67 4.52 44.72 4.71L44.72 4.71L44.72 4.71Q44.77 4.90 44.94 5.29L44.94 5.29L44.94 5.29Q45.11 5.68 45.28 6.08L45.28 6.08L45.28 6.08Q45.46 6.47 45.86 7.34L45.86 7.34L45.86 7.34Q46.26 8.22 46.63 9.07L46.63 9.07L46.63 9.07Q47.81 11.77 48.03 11.77L48.03 11.77L48.03 11.77Q48.10 11.77 48.84 10.08L48.84 10.08L48.84 10.08Q49.57 8.39 50.29 6.54L50.29 6.54L50.29 6.54Q51.00 4.69 51.00 4.35L51.00 4.35L51.00 4.35Q51.00 4.13 50.84 4.01L50.84 4.01L50.84 4.01Q50.68 3.89 50.50 3.87L50.50 3.87L50.50 3.87Q50.32 3.85 50.16 3.80L50.16 3.80L50.16 3.80Q49.99 3.75 49.99 3.64L49.99 3.64L49.99 3.64Q49.99 3.54 50.04 3.52L50.04 3.52L50.04 3.52Q50.09 3.50 50.29 3.50L50.29 3.50L50.29 3.50Q50.33 3.50 50.61 3.51L50.61 3.51L50.61 3.51Q50.89 3.51 51.17 3.51L51.17 3.51L51.17 3.51Q51.42 3.51 51.74 3.50L51.74 3.50L51.74 3.50Q52.05 3.49 52.42 3.49L52.42 3.49L52.42 3.49Q52.68 3.49 52.68 3.68L52.68 3.68L52.68 3.68Q52.68 3.78 52.59 3.85L52.59 3.85L52.59 3.85Q52.50 3.92 52.37 3.98L52.37 3.98L52.37 3.98Q52.25 4.03 52.08 4.21L52.08 4.21L52.08 4.21Q51.91 4.40 51.79 4.69L51.79 4.69L48.66 11.80L48.66 11.80Q48.33 12.56 48.01 13.34L48.01 13.34L48.01 13.34Q47.85 13.72 47.81 13.79L47.81 13.79L47.81 13.79Q47.77 13.86 47.70 13.86L47.70 13.86L47.70 13.86Q47.45 13.86 47.07 12.89L47.07 12.89L47.07 12.89Q46.70 11.98 45.63 9.65L45.63 9.65L45.63 9.65Q45.09 8.48 44.66 7.50L44.66 7.50L44.66 7.50Q44.23 6.52 44.04 6.06L44.04 6.06L44.04 6.06Q43.85 5.60 43.69 5.24L43.69 5.24L43.69 5.24Q43.53 4.87 43.44 4.72L43.44 4.72L43.44 4.72Q43.36 4.56 43.25 4.44L43.25 4.44L43.25 4.44Q43.01 4.17 42.75 4.06L42.75 4.06L42.75 4.06Q42.49 3.95 42.33 3.96L42.33 3.96L42.33 3.96Q42.17 3.96 42.06 3.91L42.06 3.91L42.06 3.91Q41.94 3.86 41.94 3.70ZM52.64 8.11L52.64 8.11L52.64 8.11Q52.64 8.04 52.68 7.99L52.68 7.99L52.68 7.99Q52.71 7.95 52.82 7.90L52.82 7.90L52.82 7.90Q52.92 7.85 53.03 7.82L53.03 7.82L53.03 7.82Q53.14 7.78 53.36 7.71L53.36 7.71L53.36 7.71Q53.58 7.63 53.77 7.55L53.77 7.55L53.77 7.55Q53.93 7.48 54.06 7.42L54.06 7.42L54.06 7.42Q54.19 7.36 54.24 7.34L54.24 7.34L54.24 7.34Q54.28 7.32 54.33 7.31L54.33 7.31L54.33 7.31Q54.39 7.29 54.47 7.29L54.47 7.29L54.47 7.29Q54.68 7.29 54.68 7.56L54.68 7.56L54.68 7.56Q54.68 7.63 54.64 7.87L54.64 7.87L54.64 7.87Q54.60 8.11 54.60 8.23L54.60 8.23L54.60 12.07L54.60 12.07Q54.60 12.49 54.73 12.73L54.73 12.73L54.73 12.73Q54.87 12.96 55.01 13.02L55.01 13.02L55.01 13.02Q55.16 13.08 55.38 13.09L55.38 13.09L55.38 13.09Q55.55 13.10 55.61 13.11L55.61 13.11L55.61 13.11Q55.66 13.12 55.73 13.16L55.73 13.16L55.73 13.16Q55.80 13.20 55.80 13.30L55.80 13.30L55.80 13.30Q55.80 13.54 55.57 13.54L55.57 13.54L55.57 13.54Q55.54 13.54 55.47 13.53L55.47 13.53L55.47 13.53Q55.40 13.52 55.36 13.52L55.36 13.52L55.36 13.52Q55.05 13.52 54.84 13.51L54.84 13.51L54.84 13.51Q54.63 13.50 54.36 13.50L54.36 13.50L54.36 13.50Q54.03 13.50 53.73 13.51L53.73 13.51L53.73 13.51Q53.44 13.52 53.37 13.52L53.37 13.52L53.37 13.52Q52.81 13.52 52.81 13.34L52.81 13.34L52.81 13.34Q52.81 13.15 53.02 13.08L53.02 13.08L53.02 13.08Q53.03 13.08 53.07 13.06L53.07 13.06L53.07 13.06Q53.40 12.95 53.47 12.78L53.47 12.78L53.47 12.78Q53.59 12.50 53.59 10.56L53.59 10.56L53.59 9.32L53.59 9.32Q53.59 8.92 53.49 8.68L53.49 8.68L53.49 8.68Q53.40 8.44 53.31 8.39L53.31 8.39L53.31 8.39Q53.23 8.33 53.03 8.29L53.03 8.29L53.03 8.29Q52.82 8.26 52.78 8.25L52.78 8.25L52.78 8.25Q52.64 8.19 52.64 8.11ZM53.44 5.18L53.44 5.18L53.44 5.18Q53.44 5.01 53.68 4.71L53.68 4.71L53.68 4.71Q53.93 4.41 54.14 4.41L54.14 4.41L54.14 4.41Q54.36 4.41 54.57 4.70L54.57 4.70L54.57 4.70Q54.78 4.98 54.78 5.21L54.78 5.21L54.78 5.21Q54.78 5.43 54.52 5.70L54.52 5.70L54.52 5.70Q54.25 5.98 54.12 5.98L54.12 5.98L54.12 5.98Q53.84 5.98 53.64 5.68L53.64 5.68L53.64 5.68Q53.44 5.39 53.44 5.18ZM56.88 12.84L56.88 12.84L56.88 11.62L56.88 11.62Q56.88 11.47 56.95 11.36L56.95 11.36L56.95 11.36Q57.01 11.26 57.09 11.26L57.09 11.26L57.09 11.26Q57.23 11.26 57.28 11.32L57.28 11.32L57.28 11.32Q57.33 11.38 57.37 11.58L57.37 11.58L57.37 11.58Q57.41 11.77 57.46 11.86L57.46 11.86L57.46 11.86Q57.97 13.15 58.91 13.15L58.91 13.15L58.91 13.15Q59.35 13.15 59.74 12.91L59.74 12.91L59.74 12.91Q60.13 12.68 60.13 12.15L60.13 12.15L60.13 12.15Q60.13 11.69 59.81 11.38L59.81 11.38L59.81 11.38Q59.49 11.07 59.02 10.90L59.02 10.90L59.02 10.90Q58.56 10.72 58.10 10.54L58.10 10.54L58.10 10.54Q57.64 10.35 57.32 9.97L57.32 9.97L57.32 9.97Q56.99 9.60 56.99 9.04L56.99 9.04L56.99 9.04Q56.99 8.26 57.62 7.78L57.62 7.78L57.62 7.78Q58.25 7.31 59.11 7.31L59.11 7.31L59.11 7.31Q59.77 7.31 60.16 7.43L60.16 7.43L60.16 7.43Q60.55 7.55 60.63 7.64L60.63 7.64L60.63 7.64Q60.70 7.74 60.70 7.83L60.70 7.83L60.70 7.83Q60.70 7.84 60.73 8.20L60.73 8.20L60.73 8.20Q60.76 8.57 60.76 8.67L60.76 8.67L60.76 8.67Q60.76 8.90 60.70 8.99L60.70 8.99L60.70 8.99Q60.65 9.07 60.51 9.07L60.51 9.07L60.51 9.07Q60.44 9.07 60.32 8.87L60.32 8.87L60.32 8.87Q60.20 8.67 60.05 8.43L60.05 8.43L60.05 8.43Q59.91 8.19 59.58 7.99L59.58 7.99L59.58 7.99Q59.25 7.78 58.81 7.78L58.81 7.78L58.81 7.78Q58.41 7.78 58.14 7.99L58.14 7.99L58.14 7.99Q57.88 8.19 57.88 8.50L57.88 8.50L57.88 8.50Q57.88 8.67 57.92 8.81L57.92 8.81L57.92 8.81Q57.96 8.96 58.07 9.07L58.07 9.07L58.07 9.07Q58.17 9.18 58.25 9.26L58.25 9.26L58.25 9.26Q58.32 9.34 58.51 9.42L58.51 9.42L58.51 9.42Q58.69 9.51 58.78 9.54L58.78 9.54L58.78 9.54Q58.87 9.58 59.09 9.65L59.09 9.65L59.09 9.65Q59.30 9.73 59.37 9.76L59.37 9.76L59.37 9.76Q60.38 10.14 60.73 10.55L60.73 10.55L60.73 10.55Q61.08 10.96 61.08 11.77L61.08 11.77L61.08 11.77Q61.08 12.56 60.34 13.23L60.34 13.23L60.34 13.23Q59.84 13.66 58.95 13.66L58.95 13.66L58.95 13.66Q58.70 13.66 58.42 13.61L58.42 13.61L58.42 13.61Q58.14 13.55 57.98 13.50L57.98 13.50L57.98 13.50Q57.82 13.45 57.61 13.37L57.61 13.37L57.61 13.37Q57.40 13.29 57.39 13.29L57.39 13.29L57.39 13.29Q57.33 13.27 57.25 13.24L57.25 13.24L57.25 13.24Q57.18 13.22 57.14 13.21L57.14 13.21L57.14 13.21Q57.11 13.20 57.05 13.17L57.05 13.17L57.05 13.17Q56.99 13.15 56.97 13.13L56.97 13.13L56.97 13.13Q56.95 13.10 56.92 13.06L56.92 13.06L56.92 13.06Q56.90 13.02 56.89 12.96L56.89 12.96L56.89 12.96Q56.88 12.91 56.88 12.84ZM62.12 8.11L62.12 8.11L62.12 8.11Q62.12 8.04 62.15 7.99L62.15 7.99L62.15 7.99Q62.19 7.95 62.29 7.90L62.29 7.90L62.29 7.90Q62.40 7.85 62.51 7.82L62.51 7.82L62.51 7.82Q62.62 7.78 62.84 7.71L62.84 7.71L62.84 7.71Q63.06 7.63 63.25 7.55L63.25 7.55L63.25 7.55Q63.41 7.48 63.54 7.42L63.54 7.42L63.54 7.42Q63.67 7.36 63.71 7.34L63.71 7.34L63.71 7.34Q63.76 7.32 63.81 7.31L63.81 7.31L63.81 7.31Q63.87 7.29 63.95 7.29L63.95 7.29L63.95 7.29Q64.16 7.29 64.16 7.56L64.16 7.56L64.16 7.56Q64.16 7.63 64.12 7.87L64.12 7.87L64.12 7.87Q64.08 8.11 64.08 8.23L64.08 8.23L64.08 12.07L64.08 12.07Q64.08 12.49 64.21 12.73L64.21 12.73L64.21 12.73Q64.34 12.96 64.49 13.02L64.49 13.02L64.49 13.02Q64.64 13.08 64.86 13.09L64.86 13.09L64.86 13.09Q65.03 13.10 65.09 13.11L65.09 13.11L65.09 13.11Q65.14 13.12 65.21 13.16L65.21 13.16L65.21 13.16Q65.28 13.20 65.28 13.30L65.28 13.30L65.28 13.30Q65.28 13.54 65.04 13.54L65.04 13.54L65.04 13.54Q65.02 13.54 64.95 13.53L64.95 13.53L64.95 13.53Q64.88 13.52 64.83 13.52L64.83 13.52L64.83 13.52Q64.53 13.52 64.32 13.51L64.32 13.51L64.32 13.51Q64.11 13.50 63.84 13.50L63.84 13.50L63.84 13.50Q63.50 13.50 63.21 13.51L63.21 13.51L63.21 13.51Q62.92 13.52 62.85 13.52L62.85 13.52L62.85 13.52Q62.29 13.52 62.29 13.34L62.29 13.34L62.29 13.34Q62.29 13.15 62.50 13.08L62.50 13.08L62.50 13.08Q62.51 13.08 62.55 13.06L62.55 13.06L62.55 13.06Q62.87 12.95 62.94 12.78L62.94 12.78L62.94 12.78Q63.07 12.50 63.07 10.56L63.07 10.56L63.07 9.32L63.07 9.32Q63.07 8.92 62.97 8.68L62.97 8.68L62.97 8.68Q62.87 8.44 62.79 8.39L62.79 8.39L62.79 8.39Q62.71 8.33 62.50 8.29L62.50 8.29L62.50 8.29Q62.30 8.26 62.26 8.25L62.26 8.25L62.26 8.25Q62.12 8.19 62.12 8.11ZM62.92 5.18L62.92 5.18L62.92 5.18Q62.92 5.01 63.16 4.71L63.16 4.71L63.16 4.71Q63.41 4.41 63.62 4.41L63.62 4.41L63.62 4.41Q63.84 4.41 64.05 4.70L64.05 4.70L64.05 4.70Q64.26 4.98 64.26 5.21L64.26 5.21L64.26 5.21Q64.26 5.43 63.99 5.70L63.99 5.70L63.99 5.70Q63.73 5.98 63.60 5.98L63.60 5.98L63.60 5.98Q63.32 5.98 63.12 5.68L63.12 5.68L63.12 5.68Q62.92 5.39 62.92 5.18ZM65.90 8.06L65.90 8.06L65.90 8.06Q65.90 7.98 65.95 7.92L65.95 7.92L65.95 7.92Q66.00 7.85 66.08 7.80L66.08 7.80L66.08 7.80Q66.16 7.74 66.33 7.61L66.33 7.61L66.33 7.61Q66.49 7.48 66.64 7.31L66.64 7.31L66.64 7.31Q66.85 7.08 67.08 6.77L67.08 6.77L67.08 6.77Q67.31 6.45 67.45 6.31L67.45 6.31L67.45 6.31Q67.58 6.16 67.70 6.16L67.70 6.16L67.70 6.16Q67.86 6.16 67.86 6.48L67.86 6.48L67.86 6.48Q67.86 6.61 67.83 6.87L67.83 6.87L67.83 6.87Q67.80 7.14 67.80 7.28L67.80 7.28L67.80 7.28Q67.80 7.48 67.88 7.52L67.88 7.52L67.88 7.52Q67.96 7.56 68.38 7.56L68.38 7.56L68.87 7.56L68.87 7.56Q69.17 7.56 69.39 7.53L69.39 7.53L69.39 7.53Q69.61 7.50 69.69 7.46L69.69 7.46L69.69 7.46Q69.78 7.42 69.84 7.39L69.84 7.39L69.84 7.39Q69.90 7.36 69.94 7.36L69.94 7.36L69.94 7.36Q70.08 7.36 70.08 7.52L70.08 7.52L70.08 7.52Q70.08 7.63 69.90 7.96L69.90 7.96L69.90 7.96Q69.72 8.29 69.64 8.29L69.64 8.29L69.64 8.29Q69.43 8.29 69.23 8.28L69.23 8.28L69.23 8.28Q69.03 8.27 68.89 8.27L68.89 8.27L68.89 8.27Q68.75 8.26 68.63 8.25L68.63 8.25L68.63 8.25Q68.50 8.23 68.42 8.22L68.42 8.22L68.42 8.22Q68.33 8.22 68.27 8.21L68.27 8.21L68.27 8.21Q68.21 8.20 68.18 8.20L68.18 8.20L68.15 8.19L68.15 8.19Q67.89 8.19 67.81 8.27L67.81 8.27L67.81 8.27Q67.73 8.36 67.73 8.65L67.73 8.65L67.73 8.65Q67.73 8.81 67.70 9.82L67.70 9.82L67.70 9.82Q67.68 10.84 67.68 11.26L67.68 11.26L67.68 11.26Q67.68 12.17 67.91 12.52L67.91 12.52L67.91 12.52Q68.14 12.88 68.88 12.88L68.88 12.88L68.88 12.88Q69.17 12.88 69.53 12.75L69.53 12.75L69.53 12.75Q69.89 12.61 69.92 12.61L69.92 12.61L69.92 12.61Q70.06 12.61 70.06 12.78L70.06 12.78L70.06 12.78Q70.06 12.98 69.57 13.28L69.57 13.28L69.57 13.28Q69.09 13.58 68.53 13.58L68.53 13.58L68.53 13.58Q66.64 13.58 66.64 11.94L66.64 11.94L66.64 11.73L66.64 11.73Q66.64 11.19 66.65 10.40L66.65 10.40L66.65 10.40Q66.67 9.62 66.68 9.05L66.68 9.05L66.68 9.05Q66.70 8.48 66.70 8.47L66.70 8.47L66.70 8.47Q66.70 8.33 66.64 8.29L66.64 8.29L66.64 8.29Q66.58 8.25 66.40 8.25L66.40 8.25L66.40 8.25Q66.35 8.25 66.26 8.25L66.26 8.25L66.26 8.25Q66.16 8.26 66.14 8.26L66.14 8.26L66.14 8.26Q65.90 8.26 65.90 8.06Z"></path></g><defs data-v-fde0c5aa=""><!----></defs><g data-v-fde0c5aa="" id="ab7b44ed-e1b9-496e-bc2b-52e65ee8bd7f" stroke="none" fill="#24B55E" transform="matrix(1.0078050007255699,0,0,1.0078050007255699,99.61055345815645,79.53844148491193)"><path d="M39.74 2.399l-.255-1.1a51.587 51.587 0 0 1 4.49-.83l.158 1.121a51.095 51.095 0 0 0-4.393.809zM61.917 2.333a46.559 46.559 0 0 0-4.403-.777l.15-1.122c1.515.195 3.027.464 4.497.795l-.244 1.104zM48.589 1.184L48.536.055a53.235 53.235 0 0 1 4.572-.011l-.042 1.132a50.636 50.636 0 0 0-4.477.008zM7.252 77.205a51.258 51.258 0 0 0 2.525 3.809l.914-.669a49.315 49.315 0 0 1-2.473-3.722l-.966.582zM3.267 68.983a49.538 49.538 0 0 0 1.806 4.199l1.015-.493a50.795 50.795 0 0 1-1.766-4.102l-1.055.396zM.826 60.179a51.192 51.192 0 0 0 1.022 4.455l1.09-.301a50.402 50.402 0 0 1-1-4.358l-1.112.204zM1.13 51.082H0c.002 1.518.073 3.054.21 4.569l1.125-.102a49.853 49.853 0 0 1-.205-4.467zM1.906 42.183l-1.113-.2a52.31 52.31 0 0 0-.6 4.535l1.125.096c.131-1.485.327-2.977.588-4.431zM4.255 33.562l-1.059-.393a51.593 51.593 0 0 0-1.402 4.349l1.091.299c.389-1.419.851-2.85 1.37-4.255zM8.117 25.509l-.972-.577a50.712 50.712 0 0 0-2.16 4.031l1.019.485a50.121 50.121 0 0 1 2.113-3.939zM9.661 21.114l.915.662a50.574 50.574 0 0 1 2.782-3.5l-.853-.743a50.174 50.174 0 0 0-2.844 3.581zM19.088 11.207a51.395 51.395 0 0 0-3.433 3.01l.782.821a48.73 48.73 0 0 1 3.357-2.949l-.706-.882zM86.074 14.006a52.56 52.56 0 0 0-3.447-2.998l-.707.888a49.61 49.61 0 0 1 3.379 2.93l.775-.82zM27.234 7.137l-.54-.989a50.043 50.043 0 0 0-3.916 2.357l.628.936a51.086 51.086 0 0 1 3.828-2.304zM78.917 8.329a50.488 50.488 0 0 0-3.935-2.336l-.528.997c1.31.7 2.605 1.47 3.846 2.282l.617-.943zM35.434 3.599l-.354-1.072a49.908 49.908 0 0 0-4.272 1.621l.446 1.038a50.952 50.952 0 0 1 4.18-1.587zM70.862 4.023a52.782 52.782 0 0 0-4.288-1.593l-.345 1.077c1.423.455 2.831.981 4.191 1.559l.442-1.043zM99.129 26.774l-2.716-2.711 1.117-9.237-1.241-1.23-3.197 7.139-1.85-1.846a1.516 1.516 0 0 0-.609-.361l.624-3.083-.992-.993-1.476 3.457-3.455 1.474.989.994 3.087-.624c.075.229.199.446.362.61l1.85 1.85-7.144 3.201 1.227 1.236 9.245-1.112 2.707 2.711a2.92 2.92 0 0 0 1.873.867.481.481 0 0 0 .339-.124.45.45 0 0 0 .129-.335 2.948 2.948 0 0 0-.869-1.883zM51.09 15.112c-18.253 0-33.101 14.848-33.101 33.101 0 18.251 14.848 33.101 33.101 33.101 18.251 0 33.101-14.85 33.101-33.101 0-18.253-14.85-33.101-33.101-33.101zm26.983 38.497c.601.607.87 1.167.991 1.774-3.197 12.465-14.527 21.706-27.974 21.706a28.703 28.703 0 0 1-13.759-3.494c.041-.179.081-.361.121-.555.244-1.177 2.063-1.742 2.844-2.521.761-.762 2.275-1.223 2.745-2.219.308-.653-.128-1.49.134-2.099.199-.458.958-.957 1.314-1.314.894-.894 1.564-3.22 1.564-4.442h-4.012c-1.267 0-1.021-1.498-1.026-2.429-.001-.5.031-1.111-.212-1.568-.277-.52-1.174-.368-1.655-.612-.837-.425-1.531-1.257-1.695-2.192-.108-.613-.086-1.062-.857-1.032-.758.032-1.462.639-2.167.639h-8.524c0 .317-.18 1.349.109 1.494.723.36 1.445.722 2.167 1.083 1.078.54 1.394 1.889 1.921 2.941.518 1.036 1.105 2.054 1.559 3.116.562 1.314.97 2.777 1.993 3.833.431.445 1.267.354 1.45.967.232.77-.007 1.71-.184 2.468-.196.839-.442 1.668-.659 2.502-5.966-4.296-10.229-10.807-11.581-18.319.402-.031.805-.085 1.039-.085.78 0 .804-.058 1.369-.621.495-.495.817-.642.817-1.324v-2.372c.96.479 1.918.96 2.878 1.438.042-1.163.873-1.312 1.831-1.473 1.138-.188 1.887-1.405 2.941-1.405.869 0 1.23.166 2.046.43.428.141.965.304 1.412.165.601-.188.459-1.261.667-1.743.299-.697.754-1.683 1.56-1.75.876-.07 2.012-.465 1.056-1.419-1.049-1.049-1.833-2.387-2.542-3.68-.303-.555-.379-1.43-.89-1.813-1.116-.838-2.792.298-3.63 1.05-.471.425.268 1.402-.379 1.675-1.052.446-2.425.804-3.511.285-.592-.283-.958-.977-1.63-1.101-.464-.084-.37-.214-.37-.734v-2.631c0-.364.101-.221.432-.316 1.303-.374.534-2.07 1.825-2.091 1.497-.025.019-2.576-.386-3.096-.227-.292-.453-.423-.7-.482C33.81 23.605 41.959 19.34 51.091 19.34c8.311 0 15.809 3.534 21.082 9.173-1.552 1.686-3.22 3.605-4.354 4.456-.778.583-1.786.937-2.655 1.371-.867.435-2.043.202-2.993.202-.247 0-3.165-.04-3.165.036 0 .865.433 2.625-.402 3.044-.997.498-2.116.878-2.909 1.669-.225.225-1.146.867-.881 1.133l.004.003a.889.889 0 0 0-.449-.123c-1.129.038-2.53.086-3.514.708-.624.394-.455.99-.538 1.645-.094.736-.325 1.515-.854 2.06-.632.652-.531.759-.531 1.817 1.119-.124 2.24-.249 3.362-.372.132-.018.955-.022.955-.169 0-.278-.157-1.22.034-1.411l1.28-1.28c.259-.259.73.48.942.693.39.389.771.472.357.882-.391.394-.784.787-1.175 1.178.174 0 1.437.047 1.44-.033.051-1.074.701-2.108 1.438-2.845.796-.796 1.887-.805 2.745-.117.347.28.134 1.179.134 1.556 0 .253-.07 2.878.062 2.878.633 0 1.185.146 1.67-.265 1.667-1.403 3.848-1.067 5.464-2.613l1.439 2.878c-1.143.382-2.287.762-3.43 1.143-.09.029-.862.346-.902.269-.261-.513-.539-1.039-.894-1.495-.472-.607-.59-.08-.497.478.151.922.736 1.785 1.371 2.451.666.698 1.039 2.043 1.473 2.912-.09-1.769 2.485 1.045 2.879 1.438l1.827-1.826.905-.905c.244-.245-.028-.315-.216-.579-1.016-1.42 1.593-1.007 2.386-1.007 1.498 0 2.637.391 3.732 1.439-1.391-.072.04 1.475.36 1.797z"></path><path d="M52.289 37.419c-.318.32-.64.639-.958.96-.328.12-.87.143-.89.521-.024.467-.045.931-.07 1.398l1.88-.939c.2-.101.038-1.662.038-1.94zM55.143 35.98c.357 0 .984.2.984-.225v-.027c.069.137.193.223.386.241-.115.484-.241.968-.386 1.451l1.313-1.314c.294-.294.125-1.03.125-1.42v-.206-2.817a7.427 7.427 0 0 1-.132.248c-.018-.203-.027-.402-.048-.607l-.167 1.006c-.368.688-.897 1.733-1.092 2.534v-.363-2.817c-.29.58-2.514 4.316-.983 4.316zM68.034 58.973c.94-.157 1.805-.756 2.485-1.405l-3.199-1.066c-1.194-.398-1.197-.527-1.775-1.686-.453-.909-.766-1.549-1.471-2.254-.515-.515-2.19-1.66-2.19-2.415 0-1.149.223-1.214-.853-1.214h-10.66c-.87.882-1.714 1.841-2.353 2.906-1.137 1.895.285 2.842 1.53 4.205 1.332 1.457.816 3.931 3.308 4.368.889.154 1.894.033 2.794.033.107 0 2.08-.278 1.89-.624.209.375.094 1.417.168 1.872.169 1.021.39 2.035.616 3.044.267 1.203.683 2.39.683 3.624 0 1.269 1.321 2.04 2.189 2.909.33.33.519.688.988.688h2.438c.404 0-.35-4.992.929-5.623.365-.18 1.087.021 1.303-.396.149-.283-.014-.631.135-.913.358-.69 1.203-.016 1.285-1.152.064-.922-.099-2.825-.749-3.555-.791-.888-.545-1.169.509-1.346zM46.035 28.767a18.118 18.118 0 0 0-2.367-1.996c-1.143-.794-2.004-.865-3.372-.865-.654 0-1.321-.045-1.973.008-.281.023-.172.337-.253.545-.491 1.256-2.532 2.765-3.531 3.764 1.382 0 2.153 2.867 2.677 3.915.315.629.202 1.283.202 1.986 0 1.029-.089 1.207.622 1.918.706.706.646.989 1.343.292l2.101-2.101c.46-.462.251-1.21.251-1.836 0-.924-.328-1.295.607-1.295.718 0 1.392.064 1.97-.432.438-.378.779-.854 1.381-.973.668-.132 2.08-.371 1.798-1.474-.114-.447-1.114-1.118-1.456-1.456z"></path></g><!----></svg>